<svg width="120" height="174" viewBox="0 0 120 174" fill="none" xmlns="http://www.w3.org/2000/svg">
<rect x="0.5" y="0.5" width="21" height="21" rx="5.5" fill="white"/>
<rect x="0.5" y="0.5" width="21" height="21" rx="5.5" stroke="#F4F4F4"/>
<path d="M6.31445 10.9999L9.43445 14.1199L15.6855 7.87988" stroke="white" stroke-width="1.5" stroke-linecap="round" stroke-linejoin="round"/>
<path d="M42.0089 6.04754L43.0355 8.10087C43.1755 8.38671 43.5489 8.66087 43.8639 8.71337L45.7247 9.02254C46.9147 9.22087 47.1947 10.0842 46.3372 10.9359L44.8905 12.3825C44.6455 12.6275 44.5114 13.1 44.5872 13.4384L45.0014 15.2292C45.328 16.6467 44.5755 17.195 43.3214 16.4542L41.5772 15.4217C41.2622 15.235 40.743 15.235 40.4222 15.4217L38.678 16.4542C37.4297 17.195 36.6714 16.6409 36.998 15.2292L37.4122 13.4384C37.488 13.1 37.3539 12.6275 37.1089 12.3825L35.6622 10.9359C34.8105 10.0842 35.0847 9.22087 36.2747 9.02254L38.1355 8.71337C38.4447 8.66087 38.818 8.38671 38.958 8.10087L39.9847 6.04754C40.5447 4.93337 41.4547 4.93337 42.0089 6.04754Z" fill="#F2BC1B" stroke="#F2BC1B" stroke-width="1.5" stroke-linecap="round" stroke-linejoin="round"/>
<path d="M60.0089 6.04754L61.0355 8.10087C61.1755 8.38671 61.5489 8.66087 61.8639 8.71337L63.7247 9.02254C64.9147 9.22087 65.1947 10.0842 64.3372 10.9359L62.8905 12.3825C62.6455 12.6275 62.5114 13.1 62.5872 13.4384L63.0014 15.2292C63.328 16.6467 62.5755 17.195 61.3214 16.4542L59.5772 15.4217C59.2622 15.235 58.743 15.235 58.4222 15.4217L56.678 16.4542C55.4297 17.195 54.6714 16.6409 54.998 15.2292L55.4122 13.4384C55.488 13.1 55.3539 12.6275 55.1089 12.3825L53.6622 10.9359C52.8105 10.0842 53.0847 9.22087 54.2747 9.02254L56.1355 8.71337C56.4447 8.66087 56.818 8.38671 56.958 8.10087L57.9847 6.04754C58.5447 4.93337 59.4547 4.93337 60.0089 6.04754Z" fill="#F2BC1B" stroke="#F2BC1B" stroke-width="1.5" stroke-linecap="round" stroke-linejoin="round"/>
<path d="M78.0089 6.04754L79.0355 8.10087C79.1755 8.38671 79.5489 8.66087 79.8639 8.71337L81.7247 9.02254C82.9147 9.22087 83.1947 10.0842 82.3372 10.9359L80.8905 12.3825C80.6455 12.6275 80.5114 13.1 80.5872 13.4384L81.0014 15.2292C81.328 16.6467 80.5755 17.195 79.3214 16.4542L77.5772 15.4217C77.2622 15.235 76.743 15.235 76.4222 15.4217L74.678 16.4542C73.4297 17.195 72.6714 16.6409 72.998 15.2292L73.4122 13.4384C73.488 13.1 73.3539 12.6275 73.1089 12.3825L71.6622 10.9359C70.8105 10.0842 71.0847 9.22087 72.2747 9.02254L74.1355 8.71337C74.4447 8.66087 74.818 8.38671 74.958 8.10087L75.9847 6.04754C76.5447 4.93337 77.4547 4.93337 78.0089 6.04754Z" fill="#F2BC1B" stroke="#F2BC1B" stroke-width="1.5" stroke-linecap="round" stroke-linejoin="round"/>
<path d="M96.0089 6.04754L97.0355 8.10087C97.1755 8.38671 97.5489 8.66087 97.8639 8.71337L99.7247 9.02254C100.915 9.22087 101.195 10.0842 100.337 10.9359L98.8905 12.3825C98.6455 12.6275 98.5114 13.1 98.5872 13.4384L99.0014 15.2292C99.328 16.6467 98.5755 17.195 97.3214 16.4542L95.5772 15.4217C95.2622 15.235 94.743 15.235 94.4222 15.4217L92.678 16.4542C91.4297 17.195 90.6714 16.6409 90.998 15.2292L91.4122 13.4384C91.488 13.1 91.3539 12.6275 91.1089 12.3825L89.6622 10.9359C88.8105 10.0842 89.0847 9.22087 90.2747 9.02254L92.1355 8.71337C92.4447 8.66087 92.818 8.38671 92.958 8.10087L93.9847 6.04754C94.5447 4.93337 95.4547 4.93337 96.0089 6.04754Z" fill="#F2BC1B" stroke="#F2BC1B" stroke-width="1.5" stroke-linecap="round" stroke-linejoin="round"/>
<path d="M114.009 6.04754L115.036 8.10087C115.176 8.38671 115.549 8.66087 115.864 8.71337L117.725 9.02254C118.915 9.22087 119.195 10.0842 118.337 10.9359L116.891 12.3825C116.646 12.6275 116.511 13.1 116.587 13.4384L117.001 15.2292C117.328 16.6467 116.576 17.195 115.321 16.4542L113.577 15.4217C113.262 15.235 112.743 15.235 112.422 15.4217L110.678 16.4542C109.43 17.195 108.671 16.6409 108.998 15.2292L109.412 13.4384C109.488 13.1 109.354 12.6275 109.109 12.3825L107.662 10.9359C106.811 10.0842 107.085 9.22087 108.275 9.02254L110.136 8.71337C110.445 8.66087 110.818 8.38671 110.958 8.10087L111.985 6.04754C112.545 4.93337 113.455 4.93337 114.009 6.04754Z" fill="#F2BC1B" stroke="#F2BC1B" stroke-width="1.5" stroke-linecap="round" stroke-linejoin="round"/>
<rect x="0.5" y="38.5" width="21" height="21" rx="5.5" fill="white"/>
<rect x="0.5" y="38.5" width="21" height="21" rx="5.5" stroke="#F4F4F4"/>
<path d="M6.31445 48.9999L9.43445 52.1199L15.6855 45.8799" stroke="white" stroke-width="1.5" stroke-linecap="round" stroke-linejoin="round"/>
<path d="M42.0089 44.0475L43.0355 46.1009C43.1755 46.3867 43.5489 46.6609 43.8639 46.7134L45.7247 47.0225C46.9147 47.2209 47.1947 48.0842 46.3372 48.9359L44.8905 50.3825C44.6455 50.6275 44.5114 51.1 44.5872 51.4384L45.0014 53.2292C45.328 54.6467 44.5755 55.195 43.3214 54.4542L41.5772 53.4217C41.2622 53.235 40.743 53.235 40.4222 53.4217L38.678 54.4542C37.4297 55.195 36.6714 54.6409 36.998 53.2292L37.4122 51.4384C37.488 51.1 37.3539 50.6275 37.1089 50.3825L35.6622 48.9359C34.8105 48.0842 35.0847 47.2209 36.2747 47.0225L38.1355 46.7134C38.4447 46.6609 38.818 46.3867 38.958 46.1009L39.9847 44.0475C40.5447 42.9334 41.4547 42.9334 42.0089 44.0475Z" fill="#F2BC1B" stroke="#F2BC1B" stroke-width="1.5" stroke-linecap="round" stroke-linejoin="round"/>
<path d="M60.0089 44.0475L61.0355 46.1009C61.1755 46.3867 61.5489 46.6609 61.8639 46.7134L63.7247 47.0225C64.9147 47.2209 65.1947 48.0842 64.3372 48.9359L62.8905 50.3825C62.6455 50.6275 62.5114 51.1 62.5872 51.4384L63.0014 53.2292C63.328 54.6467 62.5755 55.195 61.3214 54.4542L59.5772 53.4217C59.2622 53.235 58.743 53.235 58.4222 53.4217L56.678 54.4542C55.4297 55.195 54.6714 54.6409 54.998 53.2292L55.4122 51.4384C55.488 51.1 55.3539 50.6275 55.1089 50.3825L53.6622 48.9359C52.8105 48.0842 53.0847 47.2209 54.2747 47.0225L56.1355 46.7134C56.4447 46.6609 56.818 46.3867 56.958 46.1009L57.9847 44.0475C58.5447 42.9334 59.4547 42.9334 60.0089 44.0475Z" fill="#F2BC1B" stroke="#F2BC1B" stroke-width="1.5" stroke-linecap="round" stroke-linejoin="round"/>
<path d="M78.0089 44.0475L79.0355 46.1009C79.1755 46.3867 79.5489 46.6609 79.8639 46.7134L81.7247 47.0225C82.9147 47.2209 83.1947 48.0842 82.3372 48.9359L80.8905 50.3825C80.6455 50.6275 80.5114 51.1 80.5872 51.4384L81.0014 53.2292C81.328 54.6467 80.5755 55.195 79.3214 54.4542L77.5772 53.4217C77.2622 53.235 76.743 53.235 76.4222 53.4217L74.678 54.4542C73.4297 55.195 72.6714 54.6409 72.998 53.2292L73.4122 51.4384C73.488 51.1 73.3539 50.6275 73.1089 50.3825L71.6622 48.9359C70.8105 48.0842 71.0847 47.2209 72.2747 47.0225L74.1355 46.7134C74.4447 46.6609 74.818 46.3867 74.958 46.1009L75.9847 44.0475C76.5447 42.9334 77.4547 42.9334 78.0089 44.0475Z" fill="#F2BC1B" stroke="#F2BC1B" stroke-width="1.5" stroke-linecap="round" stroke-linejoin="round"/>
<path d="M96.0089 44.0475L97.0355 46.1009C97.1755 46.3867 97.5489 46.6609 97.8639 46.7134L99.7247 47.0225C100.915 47.2209 101.195 48.0842 100.337 48.9359L98.8905 50.3825C98.6455 50.6275 98.5114 51.1 98.5872 51.4384L99.0014 53.2292C99.328 54.6467 98.5755 55.195 97.3214 54.4542L95.5772 53.4217C95.2622 53.235 94.743 53.235 94.4222 53.4217L92.678 54.4542C91.4297 55.195 90.6714 54.6409 90.998 53.2292L91.4122 51.4384C91.488 51.1 91.3539 50.6275 91.1089 50.3825L89.6622 48.9359C88.8105 48.0842 89.0847 47.2209 90.2747 47.0225L92.1355 46.7134C92.4447 46.6609 92.818 46.3867 92.958 46.1009L93.9847 44.0475C94.5447 42.9334 95.4547 42.9334 96.0089 44.0475Z" fill="#F2BC1B" stroke="#F2BC1B" stroke-width="1.5" stroke-linecap="round" stroke-linejoin="round"/>
<path d="M114.009 44.0475L115.036 46.1009C115.176 46.3867 115.549 46.6609 115.864 46.7134L117.725 47.0225C118.915 47.2209 119.195 48.0842 118.337 48.9359L116.891 50.3825C116.646 50.6275 116.511 51.1 116.587 51.4384L117.001 53.2292C117.328 54.6467 116.576 55.195 115.321 54.4542L113.577 53.4217C113.262 53.235 112.743 53.235 112.422 53.4217L110.678 54.4542C109.43 55.195 108.671 54.6409 108.998 53.2292L109.412 51.4384C109.488 51.1 109.354 50.6275 109.109 50.3825L107.662 48.9359C106.811 48.0842 107.085 47.2209 108.275 47.0225L110.136 46.7134C110.445 46.6609 110.818 46.3867 110.958 46.1009L111.985 44.0475C112.545 42.9334 113.455 42.9334 114.009 44.0475Z" fill="white" stroke="#C8C9CB" stroke-linecap="round" stroke-linejoin="round"/>
<rect x="0.5" y="76.5" width="21" height="21" rx="5.5" fill="white"/>
<rect x="0.5" y="76.5" width="21" height="21" rx="5.5" stroke="#F4F4F4"/>
<path d="M6.31445 86.9999L9.43445 90.1199L15.6855 83.8799" stroke="white" stroke-width="1.5" stroke-linecap="round" stroke-linejoin="round"/>
<path d="M42.0089 82.0475L43.0355 84.1009C43.1755 84.3867 43.5489 84.6609 43.8639 84.7134L45.7247 85.0225C46.9147 85.2209 47.1947 86.0842 46.3372 86.9359L44.8905 88.3825C44.6455 88.6275 44.5114 89.1 44.5872 89.4384L45.0014 91.2292C45.328 92.6467 44.5755 93.195 43.3214 92.4542L41.5772 91.4217C41.2622 91.235 40.743 91.235 40.4222 91.4217L38.678 92.4542C37.4297 93.195 36.6714 92.6409 36.998 91.2292L37.4122 89.4384C37.488 89.1 37.3539 88.6275 37.1089 88.3825L35.6622 86.9359C34.8105 86.0842 35.0847 85.2209 36.2747 85.0225L38.1355 84.7134C38.4447 84.6609 38.818 84.3867 38.958 84.1009L39.9847 82.0475C40.5447 80.9334 41.4547 80.9334 42.0089 82.0475Z" fill="#F2BC1B" stroke="#F2BC1B" stroke-width="1.5" stroke-linecap="round" stroke-linejoin="round"/>
<path d="M60.0089 82.0475L61.0355 84.1009C61.1755 84.3867 61.5489 84.6609 61.8639 84.7134L63.7247 85.0225C64.9147 85.2209 65.1947 86.0842 64.3372 86.9359L62.8905 88.3825C62.6455 88.6275 62.5114 89.1 62.5872 89.4384L63.0014 91.2292C63.328 92.6467 62.5755 93.195 61.3214 92.4542L59.5772 91.4217C59.2622 91.235 58.743 91.235 58.4222 91.4217L56.678 92.4542C55.4297 93.195 54.6714 92.6409 54.998 91.2292L55.4122 89.4384C55.488 89.1 55.3539 88.6275 55.1089 88.3825L53.6622 86.9359C52.8105 86.0842 53.0847 85.2209 54.2747 85.0225L56.1355 84.7134C56.4447 84.6609 56.818 84.3867 56.958 84.1009L57.9847 82.0475C58.5447 80.9334 59.4547 80.9334 60.0089 82.0475Z" fill="#F2BC1B" stroke="#F2BC1B" stroke-width="1.5" stroke-linecap="round" stroke-linejoin="round"/>
<path d="M78.0089 82.0475L79.0355 84.1009C79.1755 84.3867 79.5489 84.6609 79.8639 84.7134L81.7247 85.0225C82.9147 85.2209 83.1947 86.0842 82.3372 86.9359L80.8905 88.3825C80.6455 88.6275 80.5114 89.1 80.5872 89.4384L81.0014 91.2292C81.328 92.6467 80.5755 93.195 79.3214 92.4542L77.5772 91.4217C77.2622 91.235 76.743 91.235 76.4222 91.4217L74.678 92.4542C73.4297 93.195 72.6714 92.6409 72.998 91.2292L73.4122 89.4384C73.488 89.1 73.3539 88.6275 73.1089 88.3825L71.6622 86.9359C70.8105 86.0842 71.0847 85.2209 72.2747 85.0225L74.1355 84.7134C74.4447 84.6609 74.818 84.3867 74.958 84.1009L75.9847 82.0475C76.5447 80.9334 77.4547 80.9334 78.0089 82.0475Z" fill="#F2BC1B" stroke="#F2BC1B" stroke-width="1.5" stroke-linecap="round" stroke-linejoin="round"/>
<path d="M96.0089 82.0475L97.0355 84.1009C97.1755 84.3867 97.5489 84.6609 97.8639 84.7134L99.7247 85.0225C100.915 85.2209 101.195 86.0842 100.337 86.9359L98.8905 88.3825C98.6455 88.6275 98.5114 89.1 98.5872 89.4384L99.0014 91.2292C99.328 92.6467 98.5755 93.195 97.3214 92.4542L95.5772 91.4217C95.2622 91.235 94.743 91.235 94.4222 91.4217L92.678 92.4542C91.4297 93.195 90.6714 92.6409 90.998 91.2292L91.4122 89.4384C91.488 89.1 91.3539 88.6275 91.1089 88.3825L89.6622 86.9359C88.8105 86.0842 89.0847 85.2209 90.2747 85.0225L92.1355 84.7134C92.4447 84.6609 92.818 84.3867 92.958 84.1009L93.9847 82.0475C94.5447 80.9334 95.4547 80.9334 96.0089 82.0475Z" fill="white" stroke="#C8C9CB" stroke-linecap="round" stroke-linejoin="round"/>
<path d="M114.009 82.0475L115.036 84.1009C115.176 84.3867 115.549 84.6609 115.864 84.7134L117.725 85.0225C118.915 85.2209 119.195 86.0842 118.337 86.9359L116.891 88.3825C116.646 88.6275 116.511 89.1 116.587 89.4384L117.001 91.2292C117.328 92.6467 116.576 93.195 115.321 92.4542L113.577 91.4217C113.262 91.235 112.743 91.235 112.422 91.4217L110.678 92.4542C109.43 93.195 108.671 92.6409 108.998 91.2292L109.412 89.4384C109.488 89.1 109.354 88.6275 109.109 88.3825L107.662 86.9359C106.811 86.0842 107.085 85.2209 108.275 85.0225L110.136 84.7134C110.445 84.6609 110.818 84.3867 110.958 84.1009L111.985 82.0475C112.545 80.9334 113.455 80.9334 114.009 82.0475Z" fill="white" stroke="#C8C9CB" stroke-linecap="round" stroke-linejoin="round"/>
<rect x="0.5" y="114.5" width="21" height="21" rx="5.5" fill="white"/>
<rect x="0.5" y="114.5" width="21" height="21" rx="5.5" stroke="#F4F4F4"/>
<path d="M6.31445 125L9.43445 128.12L15.6855 121.88" stroke="white" stroke-width="1.5" stroke-linecap="round" stroke-linejoin="round"/>
<path d="M42.0089 120.048L43.0355 122.101C43.1755 122.387 43.5489 122.661 43.8639 122.713L45.7247 123.023C46.9147 123.221 47.1947 124.084 46.3372 124.936L44.8905 126.383C44.6455 126.628 44.5114 127.1 44.5872 127.438L45.0014 129.229C45.328 130.647 44.5755 131.195 43.3214 130.454L41.5772 129.422C41.2622 129.235 40.743 129.235 40.4222 129.422L38.678 130.454C37.4297 131.195 36.6714 130.641 36.998 129.229L37.4122 127.438C37.488 127.1 37.3539 126.628 37.1089 126.383L35.6622 124.936C34.8105 124.084 35.0847 123.221 36.2747 123.023L38.1355 122.713C38.4447 122.661 38.818 122.387 38.958 122.101L39.9847 120.048C40.5447 118.933 41.4547 118.933 42.0089 120.048Z" fill="#F2BC1B" stroke="#F2BC1B" stroke-width="1.5" stroke-linecap="round" stroke-linejoin="round"/>
<path d="M60.0089 120.048L61.0355 122.101C61.1755 122.387 61.5489 122.661 61.8639 122.713L63.7247 123.023C64.9147 123.221 65.1947 124.084 64.3372 124.936L62.8905 126.383C62.6455 126.628 62.5114 127.1 62.5872 127.438L63.0014 129.229C63.328 130.647 62.5755 131.195 61.3214 130.454L59.5772 129.422C59.2622 129.235 58.743 129.235 58.4222 129.422L56.678 130.454C55.4297 131.195 54.6714 130.641 54.998 129.229L55.4122 127.438C55.488 127.1 55.3539 126.628 55.1089 126.383L53.6622 124.936C52.8105 124.084 53.0847 123.221 54.2747 123.023L56.1355 122.713C56.4447 122.661 56.818 122.387 56.958 122.101L57.9847 120.048C58.5447 118.933 59.4547 118.933 60.0089 120.048Z" fill="#F2BC1B" stroke="#F2BC1B" stroke-width="1.5" stroke-linecap="round" stroke-linejoin="round"/>
<path d="M78.0089 120.048L79.0355 122.101C79.1755 122.387 79.5489 122.661 79.8639 122.713L81.7247 123.023C82.9147 123.221 83.1947 124.084 82.3372 124.936L80.8905 126.383C80.6455 126.628 80.5114 127.1 80.5872 127.438L81.0014 129.229C81.328 130.647 80.5755 131.195 79.3214 130.454L77.5772 129.422C77.2622 129.235 76.743 129.235 76.4222 129.422L74.678 130.454C73.4297 131.195 72.6714 130.641 72.998 129.229L73.4122 127.438C73.488 127.1 73.3539 126.628 73.1089 126.383L71.6622 124.936C70.8105 124.084 71.0847 123.221 72.2747 123.023L74.1355 122.713C74.4447 122.661 74.818 122.387 74.958 122.101L75.9847 120.048C76.5447 118.933 77.4547 118.933 78.0089 120.048Z" fill="white" stroke="#C8C9CB" stroke-linecap="round" stroke-linejoin="round"/>
<path d="M96.0089 120.048L97.0355 122.101C97.1755 122.387 97.5489 122.661 97.8639 122.713L99.7247 123.023C100.915 123.221 101.195 124.084 100.337 124.936L98.8905 126.383C98.6455 126.628 98.5114 127.1 98.5872 127.438L99.0014 129.229C99.328 130.647 98.5755 131.195 97.3214 130.454L95.5772 129.422C95.2622 129.235 94.743 129.235 94.4222 129.422L92.678 130.454C91.4297 131.195 90.6714 130.641 90.998 129.229L91.4122 127.438C91.488 127.1 91.3539 126.628 91.1089 126.383L89.6622 124.936C88.8105 124.084 89.0847 123.221 90.2747 123.023L92.1355 122.713C92.4447 122.661 92.818 122.387 92.958 122.101L93.9847 120.048C94.5447 118.933 95.4547 118.933 96.0089 120.048Z" fill="white" stroke="#C8C9CB" stroke-linecap="round" stroke-linejoin="round"/>
<path d="M114.009 120.048L115.036 122.101C115.176 122.387 115.549 122.661 115.864 122.713L117.725 123.023C118.915 123.221 119.195 124.084 118.337 124.936L116.891 126.383C116.646 126.628 116.511 127.1 116.587 127.438L117.001 129.229C117.328 130.647 116.576 131.195 115.321 130.454L113.577 129.422C113.262 129.235 112.743 129.235 112.422 129.422L110.678 130.454C109.43 131.195 108.671 130.641 108.998 129.229L109.412 127.438C109.488 127.1 109.354 126.628 109.109 126.383L107.662 124.936C106.811 124.084 107.085 123.221 108.275 123.023L110.136 122.713C110.445 122.661 110.818 122.387 110.958 122.101L111.985 120.048C112.545 118.933 113.455 118.933 114.009 120.048Z" fill="white" stroke="#C8C9CB" stroke-linecap="round" stroke-linejoin="round"/>
<rect x="0.5" y="152.5" width="21" height="21" rx="5.5" fill="white"/>
<rect x="0.5" y="152.5" width="21" height="21" rx="5.5" stroke="#F4F4F4"/>
<path d="M6.31445 163L9.43445 166.12L15.6855 159.88" stroke="white" stroke-width="1.5" stroke-linecap="round" stroke-linejoin="round"/>
<path d="M42.0089 158.048L43.0355 160.101C43.1755 160.387 43.5489 160.661 43.8639 160.713L45.7247 161.023C46.9147 161.221 47.1947 162.084 46.3372 162.936L44.8905 164.383C44.6455 164.628 44.5114 165.1 44.5872 165.438L45.0014 167.229C45.328 168.647 44.5755 169.195 43.3214 168.454L41.5772 167.422C41.2622 167.235 40.743 167.235 40.4222 167.422L38.678 168.454C37.4297 169.195 36.6714 168.641 36.998 167.229L37.4122 165.438C37.488 165.1 37.3539 164.628 37.1089 164.383L35.6622 162.936C34.8105 162.084 35.0847 161.221 36.2747 161.023L38.1355 160.713C38.4447 160.661 38.818 160.387 38.958 160.101L39.9847 158.048C40.5447 156.933 41.4547 156.933 42.0089 158.048Z" fill="#F2BC1B" stroke="#F2BC1B" stroke-width="1.5" stroke-linecap="round" stroke-linejoin="round"/>
<path d="M60.0089 158.048L61.0355 160.101C61.1755 160.387 61.5489 160.661 61.8639 160.713L63.7247 161.023C64.9147 161.221 65.1947 162.084 64.3372 162.936L62.8905 164.383C62.6455 164.628 62.5114 165.1 62.5872 165.438L63.0014 167.229C63.328 168.647 62.5755 169.195 61.3214 168.454L59.5772 167.422C59.2622 167.235 58.743 167.235 58.4222 167.422L56.678 168.454C55.4297 169.195 54.6714 168.641 54.998 167.229L55.4122 165.438C55.488 165.1 55.3539 164.628 55.1089 164.383L53.6622 162.936C52.8105 162.084 53.0847 161.221 54.2747 161.023L56.1355 160.713C56.4447 160.661 56.818 160.387 56.958 160.101L57.9847 158.048C58.5447 156.933 59.4547 156.933 60.0089 158.048Z" fill="white" stroke="#C8C9CB" stroke-linecap="round" stroke-linejoin="round"/>
<path d="M78.0089 158.048L79.0355 160.101C79.1755 160.387 79.5489 160.661 79.8639 160.713L81.7247 161.023C82.9147 161.221 83.1947 162.084 82.3372 162.936L80.8905 164.383C80.6455 164.628 80.5114 165.1 80.5872 165.438L81.0014 167.229C81.328 168.647 80.5755 169.195 79.3214 168.454L77.5772 167.422C77.2622 167.235 76.743 167.235 76.4222 167.422L74.678 168.454C73.4297 169.195 72.6714 168.641 72.998 167.229L73.4122 165.438C73.488 165.1 73.3539 164.628 73.1089 164.383L71.6622 162.936C70.8105 162.084 71.0847 161.221 72.2747 161.023L74.1355 160.713C74.4447 160.661 74.818 160.387 74.958 160.101L75.9847 158.048C76.5447 156.933 77.4547 156.933 78.0089 158.048Z" fill="white" stroke="#C8C9CB" stroke-linecap="round" stroke-linejoin="round"/>
<path d="M96.0089 158.048L97.0355 160.101C97.1755 160.387 97.5489 160.661 97.8639 160.713L99.7247 161.023C100.915 161.221 101.195 162.084 100.337 162.936L98.8905 164.383C98.6455 164.628 98.5114 165.1 98.5872 165.438L99.0014 167.229C99.328 168.647 98.5755 169.195 97.3214 168.454L95.5772 167.422C95.2622 167.235 94.743 167.235 94.4222 167.422L92.678 168.454C91.4297 169.195 90.6714 168.641 90.998 167.229L91.4122 165.438C91.488 165.1 91.3539 164.628 91.1089 164.383L89.6622 162.936C88.8105 162.084 89.0847 161.221 90.2747 161.023L92.1355 160.713C92.4447 160.661 92.818 160.387 92.958 160.101L93.9847 158.048C94.5447 156.933 95.4547 156.933 96.0089 158.048Z" fill="white" stroke="#C8C9CB" stroke-linecap="round" stroke-linejoin="round"/>
<path d="M114.009 158.048L115.036 160.101C115.176 160.387 115.549 160.661 115.864 160.713L117.725 161.023C118.915 161.221 119.195 162.084 118.337 162.936L116.891 164.383C116.646 164.628 116.511 165.1 116.587 165.438L117.001 167.229C117.328 168.647 116.576 169.195 115.321 168.454L113.577 167.422C113.262 167.235 112.743 167.235 112.422 167.422L110.678 168.454C109.43 169.195 108.671 168.641 108.998 167.229L109.412 165.438C109.488 165.1 109.354 164.628 109.109 164.383L107.662 162.936C106.811 162.084 107.085 161.221 108.275 161.023L110.136 160.713C110.445 160.661 110.818 160.387 110.958 160.101L111.985 158.048C112.545 156.933 113.455 156.933 114.009 158.048Z" fill="white" stroke="#C8C9CB" stroke-linecap="round" stroke-linejoin="round"/>
</svg>
