<svg width="32" height="32" viewBox="0 0 32 32" fill="none" xmlns="http://www.w3.org/2000/svg">
<path d="M17.3335 4.00016C22.5069 4.00016 26.6669 8.18683 26.6669 13.3335C26.6669 17.0668 24.4935 20.2535 21.3335 21.7468V28.0002H12.0002V24.0002H10.6669C9.18688 24.0002 8.00022 22.8135 8.00022 21.3335V17.3335H6.00022C5.44022 17.3335 5.12022 16.6668 5.44022 16.2535L8.00022 12.8802C8.11769 10.4846 9.15252 8.22602 10.8902 6.57276C12.6278 4.9195 14.9351 3.99831 17.3335 4.00016ZM17.3335 1.3335C11.2135 1.3335 6.14688 5.8935 5.41355 11.8668L3.33355 14.6668H3.29355L3.26688 14.7068C2.53355 15.7202 2.44022 17.0535 3.01355 18.1602C3.49355 19.0802 4.34688 19.7202 5.33355 19.9202V21.3335C5.33355 23.8002 7.04022 25.8935 9.33355 26.4935V30.6668H24.0002V23.3335C27.3335 21.1068 29.3335 17.4135 29.3335 13.3335C29.3335 6.70683 23.9469 1.3335 17.3335 1.3335ZM23.1069 12.4002L20.4935 13.0802L22.4135 15.0268C22.8802 15.4802 22.8802 16.2535 22.4135 16.7202C21.9469 17.1868 21.1735 17.1868 20.7202 16.7202L18.7869 14.8002L18.0935 17.4135C17.9335 18.0668 17.2802 18.4268 16.6669 18.2668C16.5116 18.2279 16.3656 18.1587 16.2372 18.0631C16.1089 17.9676 16.0007 17.8475 15.9189 17.71C15.8371 17.5724 15.7833 17.42 15.7606 17.2616C15.738 17.1032 15.7469 16.9418 15.7869 16.7868L16.4935 14.1735L13.8802 14.8802C13.7252 14.9201 13.5639 14.9291 13.4055 14.9064C13.247 14.8838 13.0946 14.83 12.9571 14.7482C12.8195 14.6664 12.6995 14.5582 12.6039 14.4298C12.5083 14.3014 12.4391 14.1554 12.4002 14.0002C12.2402 13.4002 12.6135 12.7335 13.2535 12.5735L15.8669 11.8802L13.9469 9.94683C13.7463 9.71773 13.6403 9.42094 13.6504 9.11659C13.6605 8.81225 13.7859 8.52313 14.0012 8.30781C14.2165 8.09249 14.5056 7.96708 14.81 7.957C15.1143 7.94691 15.4111 8.0529 15.6402 8.2535L17.5869 10.1735L18.2669 7.56016C18.4269 6.90683 19.0935 6.5335 19.7202 6.70683C20.3736 6.88016 20.7469 7.5335 20.5736 8.1735L19.8669 10.8002L22.4936 10.0935C23.1336 9.92016 23.7869 10.2935 23.9602 10.9468C24.1335 11.5735 23.7602 12.2402 23.1069 12.4002Z" fill="#9D9EA2" stroke="white" stroke-width="1.6"/>
</svg>
