<svg width="290" height="61" viewBox="0 0 290 61" fill="none" xmlns="http://www.w3.org/2000/svg">
<rect x="9" y="43" width="272" height="2" rx="1" fill="#F4F4F4"/>
<rect x="9" y="43" width="272" height="2" rx="1" fill="#060709"/>
<rect x="9" width="35" height="28" rx="14" fill="#F4F4F4"/>
<path d="M22.768 18.62C22.08 18.62 21.472 18.484 20.944 18.212C20.424 17.94 19.976 17.532 19.6 16.988L20.488 15.968C20.88 16.528 21.256 16.916 21.616 17.132C21.976 17.348 22.404 17.456 22.9 17.456C23.204 17.456 23.48 17.408 23.728 17.312C23.976 17.216 24.172 17.084 24.316 16.916C24.46 16.748 24.532 16.556 24.532 16.34C24.532 16.196 24.508 16.06 24.46 15.932C24.412 15.804 24.336 15.688 24.232 15.584C24.136 15.48 24.008 15.384 23.848 15.296C23.696 15.208 23.516 15.132 23.308 15.068C23.1 14.996 22.86 14.936 22.588 14.888C22.012 14.776 21.532 14.608 21.148 14.384C20.772 14.16 20.488 13.876 20.296 13.532C20.112 13.188 20.02 12.788 20.02 12.332C20.02 11.996 20.092 11.684 20.236 11.396C20.388 11.108 20.592 10.86 20.848 10.652C21.112 10.436 21.42 10.272 21.772 10.16C22.124 10.04 22.504 9.98 22.912 9.98C23.56 9.98 24.124 10.108 24.604 10.364C25.092 10.612 25.476 10.976 25.756 11.456L24.844 12.356C24.604 11.964 24.316 11.664 23.98 11.456C23.652 11.248 23.284 11.144 22.876 11.144C22.564 11.144 22.292 11.192 22.06 11.288C21.828 11.384 21.644 11.52 21.508 11.696C21.38 11.864 21.316 12.064 21.316 12.296C21.316 12.464 21.348 12.62 21.412 12.764C21.476 12.9 21.572 13.024 21.7 13.136C21.836 13.24 22.016 13.336 22.24 13.424C22.464 13.504 22.732 13.576 23.044 13.64C23.484 13.736 23.876 13.86 24.22 14.012C24.564 14.156 24.856 14.328 25.096 14.528C25.336 14.728 25.516 14.952 25.636 15.2C25.764 15.448 25.828 15.716 25.828 16.004C25.828 16.54 25.704 17.004 25.456 17.396C25.208 17.788 24.856 18.092 24.4 18.308C23.944 18.516 23.4 18.62 22.768 18.62ZM22.048 19.592V14.144L23.212 14.54V19.592H22.048ZM23.692 14.54L22.528 14.144V9.116H23.692V14.54ZM30.1243 18.62C29.4843 18.62 28.9323 18.444 28.4683 18.092C28.0123 17.74 27.6603 17.244 27.4123 16.604C27.1643 15.956 27.0403 15.188 27.0403 14.3C27.0403 13.412 27.1643 12.648 27.4123 12.008C27.6603 11.36 28.0123 10.86 28.4683 10.508C28.9323 10.156 29.4843 9.98 30.1243 9.98C30.7643 9.98 31.3163 10.156 31.7803 10.508C32.2443 10.86 32.6003 11.36 32.8483 12.008C33.0963 12.648 33.2203 13.412 33.2203 14.3C33.2203 15.188 33.0963 15.956 32.8483 16.604C32.6003 17.244 32.2443 17.74 31.7803 18.092C31.3163 18.444 30.7643 18.62 30.1243 18.62ZM30.1243 17.444C30.7083 17.444 31.1603 17.172 31.4803 16.628C31.8003 16.076 31.9603 15.3 31.9603 14.3C31.9603 13.3 31.8003 12.528 31.4803 11.984C31.1603 11.432 30.7083 11.156 30.1243 11.156C29.5403 11.156 29.0883 11.432 28.7683 11.984C28.4483 12.528 28.2883 13.3 28.2883 14.3C28.2883 15.3 28.4483 16.076 28.7683 16.628C29.0883 17.172 29.5403 17.444 30.1243 17.444Z" fill="#060709"/>
<g filter="url(#filter0_d_1_6909)">
<rect x="9" y="40" width="8" height="8" rx="4" fill="white"/>
<rect x="9" y="40" width="8" height="8" rx="4" stroke="black" stroke-width="2"/>
</g>
<rect x="197" width="84" height="28" rx="14" fill="#F4F4F4"/>
<path d="M210.768 18.62C210.08 18.62 209.472 18.484 208.944 18.212C208.424 17.94 207.976 17.532 207.6 16.988L208.488 15.968C208.88 16.528 209.256 16.916 209.616 17.132C209.976 17.348 210.404 17.456 210.9 17.456C211.204 17.456 211.48 17.408 211.728 17.312C211.976 17.216 212.172 17.084 212.316 16.916C212.46 16.748 212.532 16.556 212.532 16.34C212.532 16.196 212.508 16.06 212.46 15.932C212.412 15.804 212.336 15.688 212.232 15.584C212.136 15.48 212.008 15.384 211.848 15.296C211.696 15.208 211.516 15.132 211.308 15.068C211.1 14.996 210.86 14.936 210.588 14.888C210.012 14.776 209.532 14.608 209.148 14.384C208.772 14.16 208.488 13.876 208.296 13.532C208.112 13.188 208.02 12.788 208.02 12.332C208.02 11.996 208.092 11.684 208.236 11.396C208.388 11.108 208.592 10.86 208.848 10.652C209.112 10.436 209.42 10.272 209.772 10.16C210.124 10.04 210.504 9.98 210.912 9.98C211.56 9.98 212.124 10.108 212.604 10.364C213.092 10.612 213.476 10.976 213.756 11.456L212.844 12.356C212.604 11.964 212.316 11.664 211.98 11.456C211.652 11.248 211.284 11.144 210.876 11.144C210.564 11.144 210.292 11.192 210.06 11.288C209.828 11.384 209.644 11.52 209.508 11.696C209.38 11.864 209.316 12.064 209.316 12.296C209.316 12.464 209.348 12.62 209.412 12.764C209.476 12.9 209.572 13.024 209.7 13.136C209.836 13.24 210.016 13.336 210.24 13.424C210.464 13.504 210.732 13.576 211.044 13.64C211.484 13.736 211.876 13.86 212.22 14.012C212.564 14.156 212.856 14.328 213.096 14.528C213.336 14.728 213.516 14.952 213.636 15.2C213.764 15.448 213.828 15.716 213.828 16.004C213.828 16.54 213.704 17.004 213.456 17.396C213.208 17.788 212.856 18.092 212.4 18.308C211.944 18.516 211.4 18.62 210.768 18.62ZM210.048 19.592V14.144L211.212 14.54V19.592H210.048ZM211.692 14.54L210.528 14.144V9.116H211.692V14.54ZM217.572 18.584C217.02 18.584 216.52 18.46 216.072 18.212C215.624 17.956 215.252 17.592 214.956 17.12L215.676 16.316C216.052 16.732 216.38 17.016 216.66 17.168C216.94 17.32 217.244 17.396 217.572 17.396C217.9 17.396 218.196 17.324 218.46 17.18C218.724 17.036 218.932 16.84 219.084 16.592C219.244 16.344 219.324 16.068 219.324 15.764C219.324 15.444 219.248 15.16 219.096 14.912C218.952 14.656 218.756 14.456 218.508 14.312C218.26 14.16 217.98 14.084 217.668 14.084C217.516 14.084 217.372 14.096 217.236 14.12C217.1 14.136 216.936 14.18 216.744 14.252C216.552 14.324 216.3 14.436 215.988 14.588L215.304 13.664L215.796 10.1H220.332V11.3H216.612L216.864 11.072L216.468 13.736L216.168 13.388C216.248 13.308 216.384 13.232 216.576 13.16C216.768 13.08 216.98 13.016 217.212 12.968C217.452 12.912 217.68 12.884 217.896 12.884C218.408 12.884 218.864 13.004 219.264 13.244C219.672 13.476 219.992 13.8 220.224 14.216C220.464 14.632 220.584 15.108 220.584 15.644C220.584 16.196 220.452 16.696 220.188 17.144C219.924 17.584 219.564 17.936 219.108 18.2C218.652 18.456 218.14 18.584 217.572 18.584ZM224.945 18.62C224.305 18.62 223.753 18.444 223.289 18.092C222.833 17.74 222.481 17.244 222.233 16.604C221.985 15.956 221.861 15.188 221.861 14.3C221.861 13.412 221.985 12.648 222.233 12.008C222.481 11.36 222.833 10.86 223.289 10.508C223.753 10.156 224.305 9.98 224.945 9.98C225.585 9.98 226.137 10.156 226.601 10.508C227.065 10.86 227.421 11.36 227.669 12.008C227.917 12.648 228.041 13.412 228.041 14.3C228.041 15.188 227.917 15.956 227.669 16.604C227.421 17.244 227.065 17.74 226.601 18.092C226.137 18.444 225.585 18.62 224.945 18.62ZM224.945 17.444C225.529 17.444 225.981 17.172 226.301 16.628C226.621 16.076 226.781 15.3 226.781 14.3C226.781 13.3 226.621 12.528 226.301 11.984C225.981 11.432 225.529 11.156 224.945 11.156C224.361 11.156 223.909 11.432 223.589 11.984C223.269 12.528 223.109 13.3 223.109 14.3C223.109 15.3 223.269 16.076 223.589 16.628C223.909 17.172 224.361 17.444 224.945 17.444ZM229.654 20.648L229.198 20.096C229.478 19.936 229.706 19.752 229.882 19.544C230.058 19.336 230.146 19.156 230.146 19.004C230.146 18.924 230.126 18.844 230.086 18.764C230.046 18.692 229.962 18.588 229.834 18.452C229.674 18.3 229.57 18.172 229.522 18.068C229.474 17.964 229.45 17.852 229.45 17.732C229.45 17.54 229.518 17.388 229.654 17.276C229.79 17.156 229.966 17.096 230.182 17.096C230.382 17.096 230.562 17.156 230.722 17.276C230.89 17.388 231.018 17.548 231.106 17.756C231.202 17.956 231.25 18.188 231.25 18.452C231.25 18.692 231.21 18.924 231.13 19.148C231.05 19.372 230.938 19.58 230.794 19.772C230.65 19.964 230.482 20.136 230.29 20.288C230.098 20.44 229.886 20.56 229.654 20.648ZM235.433 18.62C234.793 18.62 234.241 18.444 233.777 18.092C233.321 17.74 232.969 17.244 232.721 16.604C232.473 15.956 232.349 15.188 232.349 14.3C232.349 13.412 232.473 12.648 232.721 12.008C232.969 11.36 233.321 10.86 233.777 10.508C234.241 10.156 234.793 9.98 235.433 9.98C236.073 9.98 236.625 10.156 237.089 10.508C237.553 10.86 237.909 11.36 238.157 12.008C238.405 12.648 238.529 13.412 238.529 14.3C238.529 15.188 238.405 15.956 238.157 16.604C237.909 17.244 237.553 17.74 237.089 18.092C236.625 18.444 236.073 18.62 235.433 18.62ZM235.433 17.444C236.017 17.444 236.469 17.172 236.789 16.628C237.109 16.076 237.269 15.3 237.269 14.3C237.269 13.3 237.109 12.528 236.789 11.984C236.469 11.432 236.017 11.156 235.433 11.156C234.849 11.156 234.397 11.432 234.077 11.984C233.757 12.528 233.597 13.3 233.597 14.3C233.597 15.3 233.757 16.076 234.077 16.628C234.397 17.172 234.849 17.444 235.433 17.444ZM242.722 18.62C242.082 18.62 241.53 18.444 241.066 18.092C240.61 17.74 240.258 17.244 240.01 16.604C239.762 15.956 239.638 15.188 239.638 14.3C239.638 13.412 239.762 12.648 240.01 12.008C240.258 11.36 240.61 10.86 241.066 10.508C241.53 10.156 242.082 9.98 242.722 9.98C243.362 9.98 243.914 10.156 244.378 10.508C244.842 10.86 245.198 11.36 245.446 12.008C245.694 12.648 245.818 13.412 245.818 14.3C245.818 15.188 245.694 15.956 245.446 16.604C245.198 17.244 244.842 17.74 244.378 18.092C243.914 18.444 243.362 18.62 242.722 18.62ZM242.722 17.444C243.306 17.444 243.758 17.172 244.078 16.628C244.398 16.076 244.558 15.3 244.558 14.3C244.558 13.3 244.398 12.528 244.078 11.984C243.758 11.432 243.306 11.156 242.722 11.156C242.138 11.156 241.686 11.432 241.366 11.984C241.046 12.528 240.886 13.3 240.886 14.3C240.886 15.3 241.046 16.076 241.366 16.628C241.686 17.172 242.138 17.444 242.722 17.444ZM250.011 18.62C249.371 18.62 248.819 18.444 248.355 18.092C247.899 17.74 247.547 17.244 247.299 16.604C247.051 15.956 246.927 15.188 246.927 14.3C246.927 13.412 247.051 12.648 247.299 12.008C247.547 11.36 247.899 10.86 248.355 10.508C248.819 10.156 249.371 9.98 250.011 9.98C250.651 9.98 251.203 10.156 251.667 10.508C252.131 10.86 252.487 11.36 252.735 12.008C252.983 12.648 253.107 13.412 253.107 14.3C253.107 15.188 252.983 15.956 252.735 16.604C252.487 17.244 252.131 17.74 251.667 18.092C251.203 18.444 250.651 18.62 250.011 18.62ZM250.011 17.444C250.595 17.444 251.047 17.172 251.367 16.628C251.687 16.076 251.847 15.3 251.847 14.3C251.847 13.3 251.687 12.528 251.367 11.984C251.047 11.432 250.595 11.156 250.011 11.156C249.427 11.156 248.975 11.432 248.655 11.984C248.335 12.528 248.175 13.3 248.175 14.3C248.175 15.3 248.335 16.076 248.655 16.628C248.975 17.172 249.427 17.444 250.011 17.444ZM255.032 18.632C254.768 18.632 254.564 18.556 254.42 18.404C254.276 18.244 254.204 18.02 254.204 17.732C254.204 17.468 254.28 17.252 254.432 17.084C254.584 16.916 254.784 16.832 255.032 16.832C255.296 16.832 255.5 16.912 255.644 17.072C255.788 17.224 255.86 17.444 255.86 17.732C255.86 17.996 255.784 18.212 255.632 18.38C255.48 18.548 255.28 18.632 255.032 18.632ZM260.031 18.62C259.391 18.62 258.839 18.444 258.375 18.092C257.919 17.74 257.567 17.244 257.319 16.604C257.071 15.956 256.947 15.188 256.947 14.3C256.947 13.412 257.071 12.648 257.319 12.008C257.567 11.36 257.919 10.86 258.375 10.508C258.839 10.156 259.391 9.98 260.031 9.98C260.671 9.98 261.223 10.156 261.687 10.508C262.151 10.86 262.507 11.36 262.755 12.008C263.003 12.648 263.127 13.412 263.127 14.3C263.127 15.188 263.003 15.956 262.755 16.604C262.507 17.244 262.151 17.74 261.687 18.092C261.223 18.444 260.671 18.62 260.031 18.62ZM260.031 17.444C260.615 17.444 261.067 17.172 261.387 16.628C261.707 16.076 261.867 15.3 261.867 14.3C261.867 13.3 261.707 12.528 261.387 11.984C261.067 11.432 260.615 11.156 260.031 11.156C259.447 11.156 258.995 11.432 258.675 11.984C258.355 12.528 258.195 13.3 258.195 14.3C258.195 15.3 258.355 16.076 258.675 16.628C258.995 17.172 259.447 17.444 260.031 17.444ZM267.32 18.62C266.68 18.62 266.128 18.444 265.664 18.092C265.208 17.74 264.856 17.244 264.608 16.604C264.36 15.956 264.236 15.188 264.236 14.3C264.236 13.412 264.36 12.648 264.608 12.008C264.856 11.36 265.208 10.86 265.664 10.508C266.128 10.156 266.68 9.98 267.32 9.98C267.96 9.98 268.512 10.156 268.976 10.508C269.44 10.86 269.796 11.36 270.044 12.008C270.292 12.648 270.416 13.412 270.416 14.3C270.416 15.188 270.292 15.956 270.044 16.604C269.796 17.244 269.44 17.74 268.976 18.092C268.512 18.444 267.96 18.62 267.32 18.62ZM267.32 17.444C267.904 17.444 268.356 17.172 268.676 16.628C268.996 16.076 269.156 15.3 269.156 14.3C269.156 13.3 268.996 12.528 268.676 11.984C268.356 11.432 267.904 11.156 267.32 11.156C266.736 11.156 266.284 11.432 265.964 11.984C265.644 12.528 265.484 13.3 265.484 14.3C265.484 15.3 265.644 16.076 265.964 16.628C266.284 17.172 266.736 17.444 267.32 17.444Z" fill="#060709"/>
<g filter="url(#filter1_d_1_6909)">
<rect x="273" y="40" width="8" height="8" rx="4" fill="white"/>
<rect x="273" y="40" width="8" height="8" rx="4" stroke="black" stroke-width="2"/>
</g>
<defs>
<filter id="filter0_d_1_6909" x="0" y="35" width="26" height="26" filterUnits="userSpaceOnUse" color-interpolation-filters="sRGB">
<feFlood flood-opacity="0" result="BackgroundImageFix"/>
<feColorMatrix in="SourceAlpha" type="matrix" values="0 0 0 0 0 0 0 0 0 0 0 0 0 0 0 0 0 0 127 0" result="hardAlpha"/>
<feOffset dy="4"/>
<feGaussianBlur stdDeviation="4"/>
<feComposite in2="hardAlpha" operator="out"/>
<feColorMatrix type="matrix" values="0 0 0 0 0 0 0 0 0 0 0 0 0 0 0 0 0 0 0.1 0"/>
<feBlend mode="normal" in2="BackgroundImageFix" result="effect1_dropShadow_1_6909"/>
<feBlend mode="normal" in="SourceGraphic" in2="effect1_dropShadow_1_6909" result="shape"/>
</filter>
<filter id="filter1_d_1_6909" x="264" y="35" width="26" height="26" filterUnits="userSpaceOnUse" color-interpolation-filters="sRGB">
<feFlood flood-opacity="0" result="BackgroundImageFix"/>
<feColorMatrix in="SourceAlpha" type="matrix" values="0 0 0 0 0 0 0 0 0 0 0 0 0 0 0 0 0 0 127 0" result="hardAlpha"/>
<feOffset dy="4"/>
<feGaussianBlur stdDeviation="4"/>
<feComposite in2="hardAlpha" operator="out"/>
<feColorMatrix type="matrix" values="0 0 0 0 0 0 0 0 0 0 0 0 0 0 0 0 0 0 0.1 0"/>
<feBlend mode="normal" in2="BackgroundImageFix" result="effect1_dropShadow_1_6909"/>
<feBlend mode="normal" in="SourceGraphic" in2="effect1_dropShadow_1_6909" result="shape"/>
</filter>
</defs>
</svg>
